<?xml version="1.0" encoding="UTF-8" standalone="no"?>
<!-- Created with Inkscape (http://www.inkscape.org/) -->

<svg
   width="30mm"
   height="30.000002mm"
   viewBox="0 0 30 30.000002"
   version="1.1"
   id="svg1"
   xmlns="http://www.w3.org/2000/svg"
   xmlns:svg="http://www.w3.org/2000/svg">
  <defs
     id="defs1" />
  <rect
     style="fill:#00ff00;stroke-width:15.065"
     id="rect1"
     width="30"
     height="30"
     x="1.3186394e-09"
     y="2.3835636e-09"
     ry="15" />
  <g
     id="layer1"
     transform="matrix(0.17782415,0,0,0.17782414,-2.6119086,-4.940879)">
    <path
       id="rect1-5"
       style="fill:#ffffff;stroke:none;stroke-width:15.065;stroke-dasharray:none;stroke-opacity:1"
       d="m 97.873096,53.60293 c -5.170294,0 -9.332247,4.16247 -9.332247,9.332763 v 37.547067 l -37.544479,-0.03 c -5.170291,-0.004 -9.336431,4.15524 -9.340515,9.32553 -0.0041,5.17029 4.155237,9.33592 9.325529,9.34 l 37.559465,0.0295 v 37.59305 c 0,5.17029 4.161953,9.33276 9.332247,9.33276 5.170294,0 9.332764,-4.16247 9.332764,-9.33276 v -37.57807 l 37.58065,0.0295 c 5.17029,0.004 9.33592,-4.15472 9.34,-9.32501 0.004,-5.1703 -4.15472,-9.33592 -9.32501,-9.34 l -37.59564,-0.03 V 62.935693 c 0,-5.170293 -4.16247,-9.332763 -9.332764,-9.332763 z" />
  </g>
</svg>
