<svg xmlns="http://www.w3.org/2000/svg" viewBox="0 0 512 512"><path d="M 28,110 27,111 24,111 23,112 21,112 20,113 19,113 17,115 16,115 15,116 14,116 6,124 6,125 5,126 5,127 3,129 3,130 2,131 2,133 1,134 1,137 0,138 0,153 1,154 1,157 2,158 2,159 3,160 3,161 4,162 4,163 5,164 5,165 7,167 7,168 233,394 234,394 236,396 237,396 238,397 239,397 240,398 241,398 242,399 243,399 244,400 247,400 248,401 263,401 264,400 267,400 268,399 269,399 270,398 271,398 272,397 273,397 274,396 275,396 277,394 278,394 504,168 504,167 506,165 506,164 507,163 507,162 509,160 509,158 510,157 510,154 511,153 511,138 510,137 510,134 509,133 509,131 508,130 508,129 506,127 506,126 505,125 505,124 497,116 496,116 495,115 494,115 493,114 492,114 490,112 488,112 487,111 484,111 483,110 468,110 467,111 465,111 464,112 462,112 461,113 460,113 459,114 458,114 457,115 456,115 453,118 452,118 256,314 255,314 59,118 58,118 55,115 54,115 53,114 52,114 51,113 50,113 49,112 47,112 46,111 44,111 43,110 Z" fill="black"/></svg>